<svg xmlns="http://www.w3.org/2000/svg" width="27" height="25"><path data-name="id-card копия 2" d="M27.01 22.76V8.39a2.26 2.26 0 0 0-1.02-1.88v1.33a1.272 1.272 0 0 1 .13.55v14.37a1.34 1.34 0 0 1-1.34 1.34H6.28a1.334 1.334 0 0 1-1.3-1.18 2.208 2.208 0 0 1-.92-.33v.17A2.239 2.239 0 0 0 6.28 25h18.5a2.241 2.241 0 0 0 2.23-2.24zm-2.03-3.08V5.32a2.246 2.246 0 0 0-1.02-1.88v1.32a1.309 1.309 0 0 1 .12.56v14.36a1.34 1.34 0 0 1-1.33 1.35H4.25a1.319 1.319 0 0 1-1.3-1.18 2.317 2.317 0 0 1-.93-.34v.17a2.243 2.243 0 0 0 2.23 2.25h18.5a2.243 2.243 0 0 0 2.23-2.25zm-2.04-3.08V2.24A2.239 2.239 0 0 0 20.72 0H2.22A2.241 2.241 0 0 0-.01 2.24V16.6a2.243 2.243 0 0 0 2.23 2.25h18.5a2.241 2.241 0 0 0 2.22-2.25zM2.22 17.95A1.342 1.342 0 0 1 .88 16.6V2.24A1.34 1.34 0 0 1 2.22.9h18.5a1.338 1.338 0 0 1 1.33 1.34V16.6a1.34 1.34 0 0 1-1.33 1.35H2.22zm10.8-8.07a4.018 4.018 0 0 0 1.72-3.17 3.111 3.111 0 0 0-6.22 0 4.018 4.018 0 0 0 1.72 3.17C7.81 10.49 6 12.55 6 14.08c0 1.81 11.26 1.81 11.26 0 0-1.53-1.81-3.59-4.24-4.2zm-1.39 5.56l-1.58-1.54 1.33-3.14h-.02l-.51-.58a2.3 2.3 0 0 0 .78.15 2.56 2.56 0 0 0 .78-.14l-.52.57h-.01l1.33 3.14z" fill="#323448" fill-rule="evenodd"/></svg>