<svg xmlns="http://www.w3.org/2000/svg" width="37" height="28"><path data-name="yandex google копия 2" d="M8.14 15.394l2.07-4.525h.92v4.525h1.31V3.271h-2.31c-1.47 0-3.23 1.524-3.23 4a3.968 3.968 0 0 0 2.2 3.478l-2.61 4.644h1.65zm.8-6.19a3.342 3.342 0 0 1-.6-2.158c0-2.406 1.4-2.716 1.6-2.748a.268.268 0 0 1 .04 0h1.12v5.5h-.87A1.652 1.652 0 0 1 8.94 9.2zM0 0v19h19l-.07-19H0zm18 18H1V1h17v17zm12.99-6.969h-4.22a6.515 6.515 0 0 0-4.36 1.324 3.935 3.935 0 0 0-1.47 2.963 3.578 3.578 0 0 0 3.83 3.476c.23 0 .5-.024.73-.045l-.03.081a1.77 1.77 0 0 0-.2.782 2.185 2.185 0 0 0 .65 1.455l.04.049h-.07a10.235 10.235 0 0 0-4.33 1.014 3.158 3.158 0 0 0-1.77 2.7c0 1.575 1.53 3.165 4.95 3.165 3.98 0 6.06-2.1 6.06-4.182 0-1.537-.94-2.3-1.94-3.1l-.84-.627a1.186 1.186 0 0 1-.58-.941 1.471 1.471 0 0 1 .61-1.049l.03-.03a3.737 3.737 0 0 0 1.94-3.148 3.686 3.686 0 0 0-1.64-2.988h1.41a.07.07 0 0 0 .04-.013l1.21-.727a.1.1 0 0 0 .04-.1.094.094 0 0 0-.09-.06zm-5.12 16.042c-2.42 0-4.05-1.086-4.05-2.7 0-1.055.66-1.822 1.98-2.278a9.642 9.642 0 0 1 2.42-.356 3.96 3.96 0 0 1 .53.022c1.69 1.158 2.51 1.766 2.51 2.923 0 1.472-1.3 2.388-3.39 2.388zm-.02-8.9c-2.04 0-2.88-2.565-2.88-3.938a2.449 2.449 0 0 1 .51-1.639 2.166 2.166 0 0 1 1.61-.73c1.87 0 2.9 2.408 2.9 4.072a2.218 2.218 0 0 1-.57 1.615 2.428 2.428 0 0 1-1.57.62zm11.06.782L35 19v-2h-1v2h-2v1h2v2h1v-2l2-.027z" fill="#fff" fill-rule="evenodd"/></svg>