<svg xmlns="http://www.w3.org/2000/svg" width="25" height="25"><path data-name="Supermarket" d="M23.67 5.63H20.2a3.512 3.512 0 0 0 .91-2.35V3.1A3.207 3.207 0 0 0 16.32.42l-1.58.9a2.246 2.246 0 1 1-4.48 0L8.68.42A3.207 3.207 0 0 0 3.89 3.1v.18a3.512 3.512 0 0 0 .91 2.35H1.33A1.347 1.347 0 0 0 0 6.98v3.2a1.347 1.347 0 0 0 1.33 1.35h.61v12.12A1.342 1.342 0 0 0 3.28 25h18.44a1.342 1.342 0 0 0 1.34-1.35V11.53h.61A1.347 1.347 0 0 0 25 10.18v-3.2a1.347 1.347 0 0 0-1.33-1.35zM15.29 2.3l1.57-.9a2.106 2.106 0 0 1 2.09 0A2.085 2.085 0 0 1 20 3.14v.14a2.35 2.35 0 0 1-2.33 2.35h-4.58a4.435 4.435 0 0 1 2.2-3.33zM5 3.14A2.085 2.085 0 0 1 6.05 1.4a2.2 2.2 0 0 1 1.05-.28 2.125 2.125 0 0 1 1.03.28l1.58.9a4.435 4.435 0 0 1 2.2 3.33H7.33A2.35 2.35 0 0 1 5 3.28v-.14zm5 10.09H7.71a.566.566 0 0 0-.55.57.557.557 0 0 0 .55.56H10v9.52H3.28a.224.224 0 0 1-.22-.23V11.53H10v1.7zm0-2.83H1.33a.222.222 0 0 1-.22-.22v-3.2a.231.231 0 0 1 .22-.23H10v3.65zm3.89 13.48h-2.78V6.75h2.78v17.13zm8.05-.23a.224.224 0 0 1-.22.23H15v-9.52h2.12a.557.557 0 0 0 .55-.56.566.566 0 0 0-.55-.57H15v-1.7h6.94v12.12zm1.95-13.47a.222.222 0 0 1-.22.22H15V6.75h8.67a.231.231 0 0 1 .22.23v3.2zm-4.13 4.18h.05a.559.559 0 0 0 .56-.56.568.568 0 0 0-.56-.57h-.05a.568.568 0 0 0-.56.57.559.559 0 0 0 .56.56zm-14.74 0h.05a.559.559 0 0 0 .56-.56.568.568 0 0 0-.56-.57h-.05a.568.568 0 0 0-.56.57.559.559 0 0 0 .56.56z" fill="#fff" fill-rule="evenodd"/></svg>