<svg xmlns="http://www.w3.org/2000/svg" width="28" height="25"><path data-name="graphic-design копия 2" d="M28.01 2.905h-.05A2.905 2.905 0 0 0 24.99.011H2.97A2.908 2.908 0 0 0-.01 2.905v13.5a2.907 2.907 0 0 0 2.98 2.893h7.98l-.67 3.069H7.21a.42.42 0 0 0-.45.439v1.753a.42.42 0 0 0 .45.439h13.53a.428.428 0 0 0 .46-.439v-1.753a.428.428 0 0 0-.46-.439h-3.02l-.68-3.069h7.99a2.938 2.938 0 0 0 2.98-2.893v-13.5zm-7.72 20.341v.877H7.66v-.877h12.63zm-9.11-.877l.68-3.069h4.24l.67 3.069h-5.59zm15.88-5.962a2.07 2.07 0 0 1-2.07 2.016H2.97a2.072 2.072 0 0 1-2.08-2.016v-1.491h26.17v1.491zm0-2.367H.89V2.905A2.073 2.073 0 0 1 2.97.888h22.02a2.071 2.071 0 0 1 2.07 2.017V14.04zm-13.08 1.753a.878.878 0 1 1-.91.877.893.893 0 0 1 .91-.877zm6.76-13.151h.91v.877h-.91v-.877zm1.81 0h.9v.877h-.9v-.877zm1.8 0h.91v.877h-.91v-.877zm-1.8 1.753h.9v.877h-.9V4.4zm1.8 0h.91v.877h-.91V4.4zm-8.12 7.015h9.03v.876h-9.03v-.876zm1.36-1.754h7.67v.877h-7.67v-.877zm1.35-1.754h6.32v.877h-6.32V7.9zm5.41-1.753h.91v.877h-.91v-.877zm-10.15.044a.416.416 0 0 0-.45 0l-2.03 1.008v-.614a.419.419 0 0 0-.45-.438h-2.3a1.633 1.633 0 0 0 .04-.439A3.157 3.157 0 1 0 5.4 8.735v3.113a.419.419 0 0 0 .45.438h5.42a.419.419 0 0 0 .45-.438v-.614l2.03 1.008a.431.431 0 0 0 .23.044.419.419 0 0 0 .45-.438V6.587a.51.51 0 0 0-.23-.394zm-8.8.394v1.272a2.172 2.172 0 0 1-1.76-2.587 2.259 2.259 0 0 1 2.21-1.753A2.2 2.2 0 0 1 8.11 5.71a1.633 1.633 0 0 1-.04.439H5.85a.419.419 0 0 0-.45.438zm2.26.439a2.107 2.107 0 0 1-1.35.833v-.833h1.35zm3.16 2.805l-1.27-.613 1.27-.614v1.227zm0-2.192L8.34 8.823a.453.453 0 0 0 0 .789l2.48 1.184v.614H6.31V8.735A3.122 3.122 0 0 0 8.7 7.026h2.12v.613zm2.7 3.507l-1.8-.876v-2.1l1.8-.877v3.858z" fill="#323448" fill-rule="evenodd"/></svg>