<svg xmlns="http://www.w3.org/2000/svg" width="25" height="24.969"><path data-name="premium logo копия 2" d="M21.44 7.138c-1.08 1.425-6.55 7.147-7.54 7.635-.39.671-9.45 8.059-10.59 8.472l10.08-9.006c.14-.318 6.19-6.222 6.5-7.316a29.827 29.827 0 0 0-3.35.465c-.44.1-1.44 1.749-1.75 2.175-.39.516-2.99 3.978-3.45 4.383a101.694 101.694 0 0 1-6.97 7.759c-1.16-.653-2.78-3.549-3.32-5.1a12.721 12.721 0 0 1-.6-5.557c.09-.9-.33-1.027-.45-1.733a27.76 27.76 0 0 1 2.74 1.988c3.24 2.456 4.11 2.441 3.25 5.229a28.7 28.7 0 0 0-1.06 3.569c1.81-1.479 8.21-11.06 8.21-11.06 1.24-1.892.95-1.51-.3-5.415L11.67-.011a11.649 11.649 0 0 1 7.05 1.78c1.39.876 4.1 3.455 4.28 4.694-1.01.227-.99-.087-1.56.675zM5.6 8.508c-1.3 0-3.35.128-4.56-.014a11.19 11.19 0 0 1 1.52-3.2C4.4 2.594 8.08.053 11.21.057L9.47 5.42c-.88 2.791-.63 3.081-3.87 3.088zm1.13 13.2s4.54-3.246 4.9-3.52 5.81-4.859 5.81-4.859a20.84 20.84 0 0 1 1.86-1.593L25 6.452a14.2 14.2 0 0 1-.89 1.93c-.21.476.21 1.577.31 2.21a14.47 14.47 0 0 1-.2 4.785 20.88 20.88 0 0 1-.93 2.651 12.94 12.94 0 0 1-1.22 2.039 11.267 11.267 0 0 1-3.45 3.121 7.093 7.093 0 0 1-1.84.965 11.771 11.771 0 0 1-9.32-.3c-1.37-.633-.99-.817-1.88-.459a30.022 30.022 0 0 1-4.13 1.428l2.69-1.481c.8-.494 1.77-1.107 2.59-1.638zm9.03-.6c.43.32.82.614 1.28.962 1.45 1.11 1.34 1.036 1.64.919s-.59-2.637-.8-3.314c-.79-2.581-.78-5.172-3.5-2.91-2.89 2.385-.76 2.738 1.38 4.336z" fill="#323448" fill-rule="evenodd"/></svg>