<svg xmlns="http://www.w3.org/2000/svg" width="37" height="36"><path data-name="Auction" d="M36.6 29.5l-7.61-7.686a1.35 1.35 0 0 0-.97-.406 1.369 1.369 0 0 0-.71.2l-4.27-4.318a.566.566 0 1 0-.8.8l4.25 4.288-1.56 1.58-7.79-7.866 1.56-1.58 1.04 1.053a.566.566 0 0 0 .8-.8l-1.04-1.052 2.71-2.739.21.217a1.408 1.408 0 0 0 2 0l1-1.01a1.444 1.444 0 0 0 0-2.016L17.75.419a1.405 1.405 0 0 0-2 0l-1 1.009a1.444 1.444 0 0 0 0 2.016l.22.217-8.58 8.661-.21-.217a1.408 1.408 0 0 0-2 0l-1 1.01a1.443 1.443 0 0 0 0 2.015l7.67 7.747a1.408 1.408 0 0 0 2 0l1-1.01a1.438 1.438 0 0 0 0-2.016l-.22-.216 2.71-2.739 7.82 7.895a1.376 1.376 0 0 0 .21 1.694l7.6 7.687a1.367 1.367 0 0 0 .97.406 1.334 1.334 0 0 0 .97-.406l2.69-2.711a1.4 1.4 0 0 0 0-1.961zM15.55 2.229l1-1.01a.278.278 0 0 1 .4 0l7.67 7.746a.278.278 0 0 1 .09.207.274.274 0 0 1-.09.206l-1 1.01a.282.282 0 0 1-.4 0l-7.67-7.746a.278.278 0 0 1-.09-.207.274.274 0 0 1 .09-.207zm-2.5 18.836l-.99 1.009a.294.294 0 0 1-.41 0l-7.67-7.746a.282.282 0 0 1 0-.413l1-1.01a.272.272 0 0 1 .2-.085.3.3 0 0 1 .21.085l7.66 7.747a.282.282 0 0 1 0 .412zm2.9-5.373l-3.11 3.14-5.65-5.71 8.57-8.661 5.65 5.711-3.1 3.139zM35.8 30.658l-2.68 2.711a.244.244 0 0 1-.18.074.239.239 0 0 1-.17-.074l-7.61-7.687a.26.26 0 0 1-.07-.177.264.264 0 0 1 .07-.179l.16-.165 2.52-2.546a.258.258 0 0 1 .36 0l7.6 7.687a.238.238 0 0 1 0 .355zm-14.49.319h-.86V27.99a1.207 1.207 0 0 0-1.2-1.208H9.58a.567.567 0 0 0 0 1.133h9.67a.072.072 0 0 1 .07.075v2.986H4.42V27.99a.072.072 0 0 1 .07-.075h1.57a.567.567 0 0 0 0-1.133H4.49A1.2 1.2 0 0 0 3.3 27.99v2.986h-.86A2.451 2.451 0 0 0 0 33.438v1.613a.944.944 0 0 0 .94.948H22.8a.944.944 0 0 0 .94-.948v-1.613a2.449 2.449 0 0 0-2.43-2.462zm1.31 3.89H1.12v-1.428a1.325 1.325 0 0 1 1.32-1.329h18.87a1.322 1.322 0 0 1 1.31 1.329v1.428z" fill="#dadcee" fill-rule="evenodd"/></svg>