<svg xmlns="http://www.w3.org/2000/svg" width="36" height="44"><path d="M0 15.29h22.51l-5.78 9.375-2.27-3.822H9.92l6.73 11.3 11.02-18.135h-1.48L36 5.222l-.01 8.782h-1.15L16.64 44zm3.17-9.413l-.97 2.15a.911.911 0 0 0-.05.126.549.549 0 0 0-.01.133v1.061c0 .023-.01.034-.04.034h-.62a.028.028 0 0 1-.03-.034V8.3a.523.523 0 0 0-.02-.132.755.755 0 0 0-.04-.126L.41 5.878c0-.022 0-.034.02-.034h.7a.047.047 0 0 1 .05.034l.36.837a2.361 2.361 0 0 1 .12.317 2.782 2.782 0 0 1 .08.329l.05.239.05-.239a2.782 2.782 0 0 1 .08-.329 2.361 2.361 0 0 1 .12-.317l.37-.837a.041.041 0 0 1 .05-.034h.69c.02-.001.03.011.02.033zm2.64.163a.63.63 0 0 1 .2.484V8.7a.627.627 0 0 1-.2.483.657.657 0 0 1-.49.2h-1.1a.657.657 0 0 1-.49-.2.627.627 0 0 1-.2-.483V6.523a.63.63 0 0 1 .2-.484.657.657 0 0 1 .49-.2h1.1a.657.657 0 0 1 .49.201zm-.56.484h-.96a.059.059 0 0 0-.07.068v2.041a.06.06 0 0 0 .07.068h.96a.06.06 0 0 0 .07-.068V6.592a.059.059 0 0 0-.07-.068zm3.8-.647V8.7a.627.627 0 0 1-.2.483.657.657 0 0 1-.49.2H7.29a.673.673 0 0 1-.49-.2.664.664 0 0 1-.2-.483V5.876a.032.032 0 0 1 .04-.034h.62a.029.029 0 0 1 .03.034v2.756a.06.06 0 0 0 .07.068h.93a.06.06 0 0 0 .07-.068V5.876a.032.032 0 0 1 .04-.034h.62a.029.029 0 0 1 .03.035zm2.91.163a.667.667 0 0 1 .2.484v.884a.6.6 0 0 1-.14.412.547.547 0 0 1-.34.214c-.02 0-.02.025 0 .062l.6 1.251c0 .023 0 .034-.02.034h-.7a.046.046 0 0 1-.05-.034l-.56-1.2a.121.121 0 0 0-.1-.061h-.24a.032.032 0 0 1-.04-.034v-.613a.032.032 0 0 1 .04-.034h.79a.06.06 0 0 0 .07-.067v-.749a.059.059 0 0 0-.07-.068h-.97a.057.057 0 0 0-.06.068v2.755a.036.036 0 0 1-.04.034h-.62a.028.028 0 0 1-.03-.034V6.521a.63.63 0 0 1 .2-.484.657.657 0 0 1 .49-.2h1.1a.673.673 0 0 1 .49.203zM2.93.196a.63.63 0 0 1 .2.483v.6a.767.767 0 0 1-.01.147.755.755 0 0 1-.07.146.584.584 0 0 1-.15.119.725.725 0 0 1-.25.065v.027a.944.944 0 0 1 .25.078.622.622 0 0 1 .15.116.671.671 0 0 1 .07.139.708.708 0 0 1 .01.143v.6a.63.63 0 0 1-.2.483.657.657 0 0 1-.49.2H.68a.028.028 0 0 1-.03-.034V.038A.028.028 0 0 1 .68.004h1.76A.657.657 0 0 1 2.93.2zm-.56.483h-1a.029.029 0 0 0-.03.035v2.109a.029.029 0 0 0 .03.034h1a.06.06 0 0 0 .07-.068v-.613a.06.06 0 0 0-.07-.068h-.79a.036.036 0 0 1-.04-.033v-.613a.036.036 0 0 1 .04-.034h.79a.06.06 0 0 0 .07-.068V.748a.06.06 0 0 0-.07-.069zM6.14.033v2.824a.667.667 0 0 1-.2.483.689.689 0 0 1-.49.2H4.38a.657.657 0 0 1-.49-.2.63.63 0 0 1-.2-.483V.033a.028.028 0 0 1 .03-.034h.62a.036.036 0 0 1 .04.034v2.756a.06.06 0 0 0 .07.068h.93a.064.064 0 0 0 .07-.068V.033a.028.028 0 0 1 .03-.034h.62c.03.001.04.011.04.034zm2.77.163a.667.667 0 0 1 .2.483v.286a.038.038 0 0 1-.04.041l-.62.1q-.03.008-.03-.027V.753a.064.064 0 0 0-.07-.069h-.9a.06.06 0 0 0-.07.069v.476a.051.051 0 0 0 .02.044.4.4 0 0 0 .05.024l.97.272a1.368 1.368 0 0 1 .48.238.53.53 0 0 1 .21.442v.613a.667.667 0 0 1-.2.483.689.689 0 0 1-.49.2H7.38a.678.678 0 0 1-.69-.68v-.286a.038.038 0 0 1 .04-.041l.62-.1q.03-.007.03.027v.327a.06.06 0 0 0 .07.068h.9a.064.064 0 0 0 .07-.068v-.476a.053.053 0 0 0-.02-.045.4.4 0 0 0-.05-.024l-.97-.272a1.368 1.368 0 0 1-.48-.238.53.53 0 0 1-.21-.442V.682a.678.678 0 0 1 .69-.68h1.04A.689.689 0 0 1 8.91.2zm1.44-.163v3.47a.028.028 0 0 1-.03.034H9.7c-.03 0-.04-.011-.04-.034V.033c0-.023.01-.034.04-.034h.62a.028.028 0 0 1 .03.034zm2.91.163a.667.667 0 0 1 .2.483V3.5a.028.028 0 0 1-.03.034h-.63a.028.028 0 0 1-.03-.034V.745a.06.06 0 0 0-.07-.069h-1a.037.037 0 0 0-.04.035V3.5a.028.028 0 0 1-.03.034h-.62a.036.036 0 0 1-.04-.034V.03a.036.036 0 0 1 .04-.034h1.76a.673.673 0 0 1 .49.204zm3.04 0a.667.667 0 0 1 .2.483v.613a.522.522 0 0 1-.21.439 1.5 1.5 0 0 1-.48.241l-.86.259c-.03 0-.04 0-.04-.027v-.633a.038.038 0 0 1 .04-.041l.79-.238a.4.4 0 0 0 .05-.024.051.051 0 0 0 .02-.044V.748a.06.06 0 0 0-.07-.069h-.97a.064.064 0 0 0-.07.069v2.041a.064.064 0 0 0 .07.068h.97a.06.06 0 0 0 .07-.068v-.327q0-.034.03-.027l.63.1a.037.037 0 0 1 .03.041v.286a.678.678 0 0 1-.69.68H14.7a.689.689 0 0 1-.49-.2.667.667 0 0 1-.2-.483V.681a.667.667 0 0 1 .2-.483.689.689 0 0 1 .49-.2h1.11A.673.673 0 0 1 16.3.2zm2.9 0a.667.667 0 0 1 .2.483v.286a.037.037 0 0 1-.03.041l-.62.1c-.03 0-.04 0-.04-.027V.753a.06.06 0 0 0-.07-.069h-.9a.064.064 0 0 0-.07.069v.476a.051.051 0 0 0 .02.044.4.4 0 0 0 .05.024l.97.272a1.288 1.288 0 0 1 .48.238.53.53 0 0 1 .21.442v.613a.678.678 0 0 1-.69.68h-1.04a.689.689 0 0 1-.49-.2.667.667 0 0 1-.2-.483v-.286a.046.046 0 0 1 .04-.041l.62-.1q.03-.007.03.027v.327a.064.064 0 0 0 .07.068h.9a.06.06 0 0 0 .07-.068V2.31a.053.053 0 0 0-.02-.045.4.4 0 0 0-.05-.024l-.97-.272a1.368 1.368 0 0 1-.48-.238.53.53 0 0 1-.21-.442V.676a.667.667 0 0 1 .2-.483.689.689 0 0 1 .49-.2h1.04A.673.673 0 0 1 19.2.2zm2.9 0a.63.63 0 0 1 .2.483v.286a.037.037 0 0 1-.03.041l-.62.1c-.03 0-.04 0-.04-.027V.753a.06.06 0 0 0-.07-.069h-.89a.06.06 0 0 0-.07.069v.476a.051.051 0 0 0 .01.044.238.238 0 0 0 .06.024l.96.272a1.333 1.333 0 0 1 .49.238.55.55 0 0 1 .2.442v.613a.63.63 0 0 1-.2.483.657.657 0 0 1-.49.2h-1.03a.657.657 0 0 1-.49-.2.63.63 0 0 1-.2-.483v-.286a.037.037 0 0 1 .03-.041l.62-.1a.029.029 0 0 1 .04.027v.327a.06.06 0 0 0 .07.068h.89a.06.06 0 0 0 .07-.068v-.476c0-.023 0-.038-.02-.045a.141.141 0 0 0-.05-.024l-.96-.272a1.333 1.333 0 0 1-.49-.238.522.522 0 0 1-.2-.442V.679a.63.63 0 0 1 .2-.483.657.657 0 0 1 .49-.2h1.03A.657.657 0 0 1 22.1.2z" fill="#dadcee" fill-rule="evenodd"/></svg>