<svg xmlns="http://www.w3.org/2000/svg" width="31" height="31"><path data-name="User" d="M31 15.5A15.5 15.5 0 1 0 5.03 26.92l-.01.01.5.42c.03.03.07.05.1.08.27.22.54.43.83.64.09.06.18.13.27.19.3.21.61.41.93.59.07.04.13.08.2.12.35.2.7.39 1.06.56a.689.689 0 0 1 .08.03 15.473 15.473 0 0 0 3.75 1.19.425.425 0 0 1 .11.02c.4.07.82.12 1.23.16a.915.915 0 0 0 .16.01q.615.06 1.26.06c.42 0 .84-.02 1.25-.06a.86.86 0 0 0 .16-.01c.41-.04.82-.09 1.23-.16.03-.01.07-.01.1-.02a14.9 14.9 0 0 0 3.7-1.16 1.392 1.392 0 0 0 .13-.06c.35-.16.69-.33 1.02-.52.08-.05.16-.1.25-.15a12.004 12.004 0 0 0 1.2-.78c.24-.18.49-.36.72-.55.06-.05.11-.08.16-.13l.52-.43-.02-.01A15.451 15.451 0 0 0 31 15.5zm-29.87 0a14.37 14.37 0 1 1 23.9 10.74 5.088 5.088 0 0 0-.5-.3l-4.77-2.38a1.266 1.266 0 0 1-.7-1.13v-1.66c.11-.14.23-.29.35-.46a11.573 11.573 0 0 0 1.47-2.89 2.042 2.042 0 0 0 1.18-1.86v-1.99a2.059 2.059 0 0 0-.5-1.34V9.6a4.551 4.551 0 0 0-1.06-3.3c-1.04-1.19-2.72-1.79-5-1.79s-3.96.6-5 1.78A4.581 4.581 0 0 0 9.44 9.6v2.63a2.059 2.059 0 0 0-.5 1.34v1.99a2.045 2.045 0 0 0 .76 1.59 10.317 10.317 0 0 0 1.74 3.6v1.64a1.244 1.244 0 0 1-.66 1.1l-4.45 2.43a5.075 5.075 0 0 0-.43.27A14.33 14.33 0 0 1 1.13 15.5zm22.8 11.63c-.2.14-.4.28-.6.41-.09.06-.19.12-.28.18-.27.17-.54.33-.81.47a1.14 1.14 0 0 0-.19.1 15.354 15.354 0 0 1-1.96.83c-.03.01-.05.01-.08.02a14.586 14.586 0 0 1-2.18.54.037.037 0 0 0-.03.01c-.35.05-.7.09-1.06.13a1.087 1.087 0 0 0-.18.01c-.35.03-.71.04-1.06.04s-.71-.02-1.07-.04c-.06-.01-.12-.01-.18-.02-.36-.03-.71-.07-1.07-.13a.06.06 0 0 1-.04-.01 13.852 13.852 0 0 1-2.2-.54l-.06-.03c-.36-.12-.71-.25-1.05-.4h-.01c-.33-.14-.65-.3-.96-.46l-.12-.06c-.29-.16-.57-.32-.85-.5-.08-.05-.17-.1-.25-.16-.25-.16-.51-.34-.75-.52-.03-.02-.05-.04-.08-.06l.06-.03 4.45-2.43a2.384 2.384 0 0 0 1.25-2.09v-2.03l-.13-.16a9.379 9.379 0 0 1-1.69-3.5l-.06-.23-.19-.12a.944.944 0 0 1-.43-.79v-2a.905.905 0 0 1 .31-.68l.19-.17V9.57l-.01-.08a3.43 3.43 0 0 1 .79-2.45c.81-.93 2.21-1.4 4.15-1.4s3.32.46 4.14 1.39a3.476 3.476 0 0 1 .8 2.47l-.01 3.21.19.17a.911.911 0 0 1 .31.69v1.99a.933.933 0 0 1-.66.89l-.28.09-.09.28a10.7 10.7 0 0 1-1.41 2.83 5.711 5.711 0 0 1-.42.54l-.14.16v2.08a2.366 2.366 0 0 0 1.32 2.13l4.77 2.39c.03.02.06.03.09.05a2.028 2.028 0 0 0-.18.13z" fill="#27c1c4" fill-rule="evenodd"/></svg>