<svg xmlns="http://www.w3.org/2000/svg" width="42.094" height="30"><path data-name="Forma 1" d="M38.259 23.32l-1.326-1.33a11.134 11.134 0 0 0 0-15.73l1.328-1.33a13.019 13.019 0 0 1-.002 18.39zm-2.3-16.09l-1.326 1.33a7.876 7.876 0 0 1 0 11.13l1.326 1.33a9.758 9.758 0 0 0 .004-13.79zM33.59 9.6l-1.327 1.32a4.538 4.538 0 0 1 0 6.41l1.328 1.32a6.4 6.4 0 0 0 .003-9.05zM3.797 23.32l1.328-1.33a11.134 11.134 0 0 1 0-15.73l-1.33-1.33a13.022 13.022 0 0 0 .006 18.39zm2.3-2.3l1.327-1.33a7.888 7.888 0 0 1 0-11.14L6.097 7.23a9.76 9.76 0 0 0 .001 13.79zm2.368-2.37l1.329-1.32a4.539 4.539 0 0 1 0-6.41L8.465 9.6a6.4 6.4 0 0 0 .001 9.05zM29.744 2.03v25.94A2.032 2.032 0 0 1 27.718 30H14.345a2.032 2.032 0 0 1-2.026-2.03V2.03A2.032 2.032 0 0 1 14.345 0h13.374a2.032 2.032 0 0 1 2.026 2.03zm-11.1-.32a.245.245 0 0 0 .246.24h4.278a.245.245 0 1 0 0-.49H18.89a.247.247 0 0 0-.244.25zm3.4 26.26a1.014 1.014 0 1 0-1.014 1.02 1.011 1.011 0 0 0 1.015-1.02zm6.29-24.76H13.731v23.04h14.6V3.21z" fill="#fff" fill-rule="evenodd"/></svg>